<?xml version="1.0" encoding="UTF-8" standalone="no"?>
<!-- Created with Inkscape (http://www.inkscape.org/) -->

<svg
   xmlns:dc="http://purl.org/dc/elements/1.1/"
   xmlns:cc="http://creativecommons.org/ns#"
   xmlns:rdf="http://www.w3.org/1999/02/22-rdf-syntax-ns#"
   xmlns:svg="http://www.w3.org/2000/svg"
   xmlns="http://www.w3.org/2000/svg"
   xmlns:xlink="http://www.w3.org/1999/xlink"
   xmlns:sodipodi="http://sodipodi.sourceforge.net/DTD/sodipodi-0.dtd"
   xmlns:inkscape="http://www.inkscape.org/namespaces/inkscape"
   width="744.09448819"
   height="1052.3622047"
   id="svg2"
   version="1.1"
   inkscape:version="0.48.3.1 r9886"
   sodipodi:docname="icons.svg">
  <defs
     id="defs4">
    <linearGradient
       gradientUnits="userSpaceOnUse"
       y2="883.38348"
       x2="-154.17836"
       y1="-115.88824"
       x1="-1181.7566"
       id="linearGradient3952"
       xlink:href="#linearGradient3946"
       inkscape:collect="always" />
    <linearGradient
       id="linearGradient3693-7"
       inkscape:collect="always">
      <stop
         id="stop3695-4"
         offset="0"
         style="stop-color:#ffffff;stop-opacity:1;" />
      <stop
         id="stop3697-0"
         offset="1"
         style="stop-color:#ffffff;stop-opacity:0;" />
    </linearGradient>
    <linearGradient
       y2="209.50504"
       x2="-495.71429"
       y1="875.21936"
       x1="-495.71429"
       gradientUnits="userSpaceOnUse"
       id="linearGradient2924"
       xlink:href="#linearGradient3693-7"
       inkscape:collect="always" />
    <linearGradient
       id="linearGradient3946"
       inkscape:collect="always">
      <stop
         id="stop3948"
         offset="0"
         style="stop-color:#ffffff;stop-opacity:1;" />
      <stop
         id="stop3950"
         offset="1"
         style="stop-color:#ffffff;stop-opacity:0;" />
    </linearGradient>
  </defs>
  <sodipodi:namedview
     id="base"
     pagecolor="#ffffff"
     bordercolor="#666666"
     borderopacity="1.0"
     inkscape:pageopacity="0.0"
     inkscape:pageshadow="2"
     inkscape:zoom="1.979899"
     inkscape:cx="91.117268"
     inkscape:cy="862.4893"
     inkscape:document-units="px"
     inkscape:current-layer="layer1"
     showgrid="false"
     showguides="true"
     inkscape:guide-bbox="true"
     inkscape:window-width="1615"
     inkscape:window-height="1026"
     inkscape:window-x="65"
     inkscape:window-y="24"
     inkscape:window-maximized="1" />
  <metadata
     id="metadata7">
    <rdf:RDF>
      <cc:Work
         rdf:about="">
        <dc:format>image/svg+xml</dc:format>
        <dc:type
           rdf:resource="http://purl.org/dc/dcmitype/StillImage" />
        <dc:title></dc:title>
      </cc:Work>
    </rdf:RDF>
  </metadata>
  <g
     inkscape:label="Layer 1"
     inkscape:groupmode="layer"
     id="layer1">
    <path
       style="fill:#000000;stroke:none"
       d="m 286.10043,100.97482 c -0.0341,0.005 -0.0743,0.0234 -0.11442,0.049 -0.91063,1.51485 -1.12489,3.50569 -1.77624,5.19795 l -2.59897,8.51069 c -2.3952,-2.81587 -7.54216,-1.07296 -7.84052,2.69161 -0.6395,3.53533 3.36012,6.73622 6.51651,5.11622 2.97765,-1.61965 3.06113,-5.55066 4.13548,-8.45076 l 2.32655,-7.99308 c 0.79678,2.15569 1.92763,5.19121 -0.17981,6.9415 -1.31481,0.64207 -0.93208,3.16068 0.70287,2.64257 2.86135,-1.22999 3.92357,-5.27397 2.62622,-8.08026 -0.96223,-2.09399 -2.1785,-4.0935 -3.31274,-6.10241 -0.1453,-0.13464 -0.24649,-0.55718 -0.48493,-0.52307 z"
       id="rect4024"
       inkscape:connector-curvature="0"
       inkscape:export-filename="/home/stijn/bin/gusic/imgs/icon-song-16.png"
       inkscape:export-xdpi="65.454544"
       inkscape:export-ydpi="65.454544" />
    <g
       id="g3765"
       transform="matrix(0.06635919,0,0,0.06635919,137.0275,92.814018)"
       inkscape:export-filename="/home/stijn/bin/gusic/imgs/icon-album-16.png"
       inkscape:export-xdpi="65.449997"
       inkscape:export-ydpi="65.449997">
      <path
         transform="matrix(0.89949749,0,0,0.89949749,25.412778,27.085932)"
         d="m 437.14287,269.50504 c 0,101.77819 -82.50753,184.28572 -184.28572,184.28572 -101.7782,0 -184.285724,-82.50753 -184.285724,-184.28572 0,-101.7782 82.507524,-184.285725 184.285724,-184.285725 101.77819,0 184.28572,82.507525 184.28572,184.285725 z"
         sodipodi:ry="184.28572"
         sodipodi:rx="184.28572"
         sodipodi:cy="269.50504"
         sodipodi:cx="252.85715"
         id="path2985"
         style="fill:#000000;fill-rule:evenodd;stroke:none"
         sodipodi:type="arc" />
      <path
         sodipodi:type="arc"
         style="fill:#ffffff;fill-rule:evenodd;stroke:none"
         id="path2987"
         sodipodi:cx="252.85715"
         sodipodi:cy="269.50504"
         sodipodi:rx="184.28572"
         sodipodi:ry="184.28572"
         d="m 437.14287,269.50504 c 0,101.77819 -82.50753,184.28572 -184.28572,184.28572 -101.7782,0 -184.285724,-82.50753 -184.285724,-184.28572 0,-101.7782 82.507524,-184.285725 184.285724,-184.285725 101.77819,0 184.28572,82.507525 184.28572,184.285725 z"
         transform="matrix(0.83764979,0,0,0.83764979,41.05141,43.754198)" />
      <path
         transform="matrix(0.76034017,0,0,0.76034017,60.599701,64.589531)"
         d="m 437.14287,269.50504 c 0,101.77819 -82.50753,184.28572 -184.28572,184.28572 -101.7782,0 -184.285724,-82.50753 -184.285724,-184.28572 0,-101.7782 82.507524,-184.285725 184.285724,-184.285725 101.77819,0 184.28572,82.507525 184.28572,184.285725 z"
         sodipodi:ry="184.28572"
         sodipodi:rx="184.28572"
         sodipodi:cy="269.50504"
         sodipodi:cx="252.85715"
         id="path2989"
         style="fill:#000000;fill-rule:evenodd;stroke:none"
         sodipodi:type="arc" />
      <path
         inkscape:transform-center-x="-67.069421"
         inkscape:transform-center-y="-62.822941"
         sodipodi:end="0.3904886"
         sodipodi:start="0"
         sodipodi:type="arc"
         style="fill:#ffffff;fill-rule:evenodd;stroke:none"
         id="path2995"
         sodipodi:cx="252.85715"
         sodipodi:cy="269.50504"
         sodipodi:rx="184.28572"
         sodipodi:ry="184.28572"
         d="m 437.14287,269.50504 c 0,24.06364 -4.71285,47.89435 -13.87244,70.14656 L 252.85715,269.50504 z"
         transform="matrix(0.34141963,-0.68179939,0.68179939,0.34141963,-17.221618,349.88858)" />
      <path
         sodipodi:type="arc"
         style="fill:#ffffff;fill-rule:evenodd;stroke:none"
         id="path2991"
         sodipodi:cx="252.85715"
         sodipodi:cy="269.50504"
         sodipodi:rx="184.28572"
         sodipodi:ry="184.28572"
         d="m 437.14287,269.50504 c 0,101.77819 -82.50753,184.28572 -184.28572,184.28572 -101.7782,0 -184.285724,-82.50753 -184.285724,-184.28572 0,-101.7782 82.507524,-184.285725 184.285724,-184.285725 101.77819,0 184.28572,82.507525 184.28572,184.285725 z"
         transform="matrix(0.22690378,0,0,0.22690378,195.48291,208.35333)" />
      <path
         transform="matrix(0.15732512,0,0,0.15732512,213.07637,227.10513)"
         d="m 437.14287,269.50504 c 0,101.77819 -82.50753,184.28572 -184.28572,184.28572 -101.7782,0 -184.285724,-82.50753 -184.285724,-184.28572 0,-101.7782 82.507524,-184.285725 184.285724,-184.285725 101.77819,0 184.28572,82.507525 184.28572,184.285725 z"
         sodipodi:ry="184.28572"
         sodipodi:rx="184.28572"
         sodipodi:cy="269.50504"
         sodipodi:cx="252.85715"
         id="path2993"
         style="fill:#000000;fill-rule:evenodd;stroke:none"
         sodipodi:type="arc" />
    </g>
    <g
       id="g4031"
       inkscape:export-filename="/home/stijn/bin/gusic/imgs/icon-artist-16.png"
       inkscape:export-xdpi="65.449997"
       inkscape:export-ydpi="65.449997">
      <path
         transform="matrix(-0.18224852,0,0,0.18224852,293.74488,77.438858)"
         d="m 437.14285,231.6479 a 60.357143,22.857143 0 1 1 -120.71429,0 60.357143,22.857143 0 1 1 120.71429,0 z"
         sodipodi:ry="22.857143"
         sodipodi:rx="60.357143"
         sodipodi:cy="231.6479"
         sodipodi:cx="376.78571"
         id="path3773"
         style="fill:#000000;stroke:none"
         sodipodi:type="arc" />
      <path
         sodipodi:nodetypes="ssssssssssssssacaasssss"
         inkscape:connector-curvature="0"
         id="path3775"
         d="m 219.4786,111.5854 c 0,1.05995 0.15882,2.0707 0.44449,2.98958 0.28677,0.91876 0.70148,1.74642 1.21359,2.44129 0.51177,0.69487 1.12248,1.25738 1.79992,1.64606 0.67722,0.38824 1.42237,0.60332 2.20426,0.60332 0.782,0 1.52672,-0.21508 2.20416,-0.60332 0.67722,-0.38824 1.2876,-0.95075 1.79992,-1.64606 0.51288,-0.69487 0.92759,-1.52242 1.21359,-2.44129 0.28677,-0.91877 0.44449,-1.92919 0.44449,-2.98958 0,-1.05994 -0.15882,-2.07069 -0.44449,-2.98957 -0.28677,-0.91877 -0.70148,-1.74643 -1.21359,-2.4414 -0.51177,-0.69487 -1.12248,-1.25727 -1.79992,-1.64595 -0.16985,-0.0993 -0.34302,-0.18309 -0.5206,-0.25809 -0.17757,-0.0772 -0.35846,-0.13787 -0.54265,-0.18971 -0.1842,-0.0552 -0.54597,0.0772 -0.56251,-0.11581 -0.0331,-0.37942 0.43677,-0.29449 1.06435,-0.41361 -1.17983,-0.0882 -1.36039,-0.0221 -2.02713,0.0882 -0.2989,0.0551 -0.60552,0.11691 -0.87134,0.2625 -0.16544,0.0882 -0.25147,0.29339 -0.42905,0.36839 -0.17757,0.0772 -0.35074,0.16103 -0.52059,0.25809 -0.67722,0.38824 -1.2876,0.95075 -1.79992,1.64595 -0.51178,0.69486 -0.92649,1.52253 -1.21359,2.4414 -0.28677,0.91877 -0.44449,1.92908 -0.44449,2.98957 z"
         style="fill:#000000;stroke:none" />
      <path
         sodipodi:nodetypes="cssscc"
         inkscape:connector-curvature="0"
         id="rect3780"
         d="m 228.48923,107.89722 0,0.95626 c 0,0.73016 -0.59008,1.32124 -1.32123,1.32124 -0.73127,0 -1.32135,-0.59009 -1.32135,-1.32124 l 0,-0.95626 z"
         style="fill:#ffffff;stroke:none" />
      <path
         style="fill:#ffffff;stroke:none"
         d="m 224.47975,107.89722 0,0.95626 c 0,0.73016 -0.59008,1.32124 -1.32124,1.32124 -0.73126,0 -1.32134,-0.59009 -1.32134,-1.32124 l 0,-0.95626 z"
         id="path3786"
         inkscape:connector-curvature="0"
         sodipodi:nodetypes="cssscc" />
      <rect
         transform="matrix(0.70710678,0.70710678,-0.70710678,0.70710678,0,0)"
         y="-76.954796"
         x="241.4426"
         height="0.81586373"
         width="0.81586373"
         id="rect3806"
         style="fill:#ffffff;stroke:none" />
      <path
         sodipodi:nodetypes="ccccc"
         inkscape:connector-curvature="0"
         id="rect3808"
         d="m 225.14074,116.84548 1.03101,6.38953 -1.03101,0.5769 -1.03102,-0.57691 z"
         style="fill:#ffffff;stroke:none" />
    </g>
    <path
       style="fill:#090909"
       d="m 35.756717,115.51662 c -1.37233,-1.26494 -2.49514,-2.34381 -2.49514,-2.39747 0,-0.13593 4.9127,-4.64002 5.10982,-4.6848 0.12954,-0.0294 0.16646,0.24563 0.19246,1.43399 l 0.0322,1.47041 5.16236,0 5.16237,0 0.43121,-0.26811 c 0.23717,-0.14745 0.57232,-0.50882 0.74478,-0.80303 0.2775,-0.4734 0.31837,-0.67506 0.35532,-1.75312 l 0.0418,-1.21819 1.64631,-1.64337 c 1.26431,-1.26207 1.6631,-1.59963 1.71866,-1.45484 0.0398,0.1037 0.0512,1.52046 0.0254,3.14836 -0.0427,2.69003 -0.0698,3.02172 -0.29735,3.63888 -0.48028,1.30258 -1.40001,2.40884 -2.57526,3.09759 -1.17559,0.68894 -1.16105,0.68738 -7.02373,0.75236 l -5.3918,0.0598 -0.0321,1.46267 c -0.0232,1.05834 -0.0708,1.46214 -0.17208,1.46074 -0.077,-10e-4 -1.26278,-1.03689 -2.63511,-2.30183 z m -3.81952,-4.26453 c -0.0398,-0.1037 -0.0512,-1.52046 -0.0254,-3.14836 0.0427,-2.69003 0.0698,-3.02172 0.29735,-3.63888 0.48028,-1.30258 1.40001,-2.40884 2.57526,-3.09759 1.17559,-0.68894 1.16105,-0.68738 7.02373,-0.75236 l 5.3918,-0.0598 0.0322,-1.470407 c 0.0265,-1.20924 0.0615,-1.46394 0.19744,-1.43399 0.20021,0.0441 5.10484,4.540107 5.10484,4.679517 0,0.13645 -4.912,4.64063 -5.10982,4.68558 -0.12954,0.0294 -0.16646,-0.24564 -0.19246,-1.43399 l -0.0322,-1.47041 -5.16236,0 -5.16237,0 -0.43121,0.2681 c -0.23717,0.14745 -0.57232,0.50882 -0.74478,0.80303 -0.2775,0.4734 -0.31837,0.67506 -0.35532,1.75312 l -0.0417,1.21819 -1.64631,1.64338 c -1.26431,1.26206 -1.6631,1.59962 -1.71866,1.45483 z"
       id="path4402"
       inkscape:connector-curvature="0"
       inkscape:export-filename="/home/stijn/bin/gusic/imgs/icon-repeat-16.png"
       inkscape:export-xdpi="65.454269"
       inkscape:export-ydpi="65.454269" />
    <path
       style="fill:#0b0b0b"
       d="m 97.188561,115.0469 -0.02802,-1.06121 -1.628833,-0.0615 c -1.345992,-0.0508 -1.728638,-0.0997 -2.203596,-0.28124 -0.69752,-0.26666 -1.66008,-0.98977 -2.065732,-1.55185 l -0.298662,-0.41383 0.689647,-1.06692 c 0.379305,-0.58681 0.736184,-1.06693 0.793064,-1.06693 0.05688,0 0.306814,0.27629 0.55541,0.61399 0.248596,0.33769 0.638413,0.7375 0.866262,0.88845 0.387924,0.25701 0.492282,0.27656 1.640977,0.30741 1.807792,0.0485 1.700821,0.11865 1.700821,-1.11489 0,-0.56585 0.03707,-1.05173 0.08238,-1.07973 0.106325,-0.0657 3.767581,3.28694 3.767581,3.45001 0,0.13473 -3.609771,3.49945 -3.75431,3.49945 -0.04894,0 -0.101583,-0.47754 -0.116993,-1.06121 z m -18.099762,-1.8323 c -0.02732,-0.0712 -0.03703,-0.63758 -0.02158,-1.25865 l 0.02809,-1.12921 3.458028,-0.0494 3.458029,-0.0494 0.405867,-0.29863 c 0.709171,-0.52178 1.44427,-1.51203 2.746201,-3.69942 1.842843,-3.09618 2.92864,-4.2774 4.427585,-4.8167 0.263036,-0.0946 0.978167,-0.16919 1.990053,-0.20747 l 1.579474,-0.0598 0.02802,-1.06121 c 0.01541,-0.58367 0.06806,-1.061205 0.116993,-1.061205 0.144539,0 3.754311,3.364715 3.754311,3.499445 0,0.16307 -3.661257,3.51573 -3.767582,3.45001 -0.04531,-0.028 -0.08238,-0.50998 -0.08238,-1.07105 0,-0.83918 -0.0277,-1.03078 -0.156149,-1.08007 -0.342231,-0.13132 -2.412132,-0.0619 -2.783856,0.0934 -0.729372,0.30467 -1.416801,1.16869 -2.980413,3.74601 -1.663921,2.74266 -2.52802,3.8317 -3.571634,4.50139 -0.999625,0.64146 -1.299355,0.68126 -5.129978,0.68126 -2.754247,0 -3.459413,-0.0261 -3.499071,-0.12943 z m 7.968041,-7.47288 c -0.120866,-0.16348 -0.403517,-0.41891 -0.628113,-0.56762 l -0.408354,-0.27039 -3.462535,-0.0494 -3.462533,-0.0494 0,-1.23397 0,-1.23396 3.405741,-0.0268 c 2.062188,-0.0162 3.593546,0.0132 3.881801,0.0745 0.69733,0.14838 1.476893,0.54714 2.005823,1.02601 l 0.465017,0.42101 -0.674444,1.10355 c -0.370943,0.60696 -0.725788,1.10356 -0.788543,1.10356 -0.06276,0 -0.212992,-0.13376 -0.33386,-0.29724 z"
       id="path4466"
       inkscape:connector-curvature="0"
       inkscape:export-filename="/home/stijn/bin/gusic/imgs/icon-shuffle-22.png"
       inkscape:export-xdpi="90"
       inkscape:export-ydpi="90" />
  </g>
</svg>
